<?xml version="1.0" standalone="no"?>
<!DOCTYPE svg PUBLIC "-//W3C//DTD SVG 1.1//EN" "http://www.w3.org/Graphics/SVG/1.1/DTD/svg11.dtd" >
<!--
2013-9-30: Created.
-->
<svg>
<metadata>
Created by iconfont
</metadata>
<defs>

<font id="iconfont" horiz-adv-x="1024" >
  <font-face
    font-family="iconfont"
    font-weight="500"
    font-stretch="normal"
    units-per-em="1024"
    ascent="896"
    descent="-128"
  />
    <missing-glyph />
    
    <glyph glyph-name="user" unicode="&#58988;" d="M283.083845 605.200938c0-126.207423 102.313224-228.5186 228.511437-228.5186 126.2064 0 228.514507 102.311177 228.514507 228.5186 0 126.202307-102.308107 228.51553-228.514507 228.51553C385.390929 833.716468 283.083845 731.403245 283.083845 605.200938L283.083845 605.200938zM647.796314 376.145102c-39.302121-25.200962-86.044702-39.814798-136.202055-39.814798-50.154283 0-96.894817 14.613836-136.197962 39.814798-171.106006-56.998155-294.485011-218.435964-294.485011-408.697239 0-11.157107 0.422625-22.218024 1.254573-33.164331l858.852706 0c0.831948 10.946306 1.255597 22.007223 1.255597 33.164331 0 190.261275-123.372865 351.698061-294.483988 408.697239L647.796314 376.145102zM647.796314 376.145102"  horiz-adv-x="1024" />

    
    <glyph glyph-name="delete" unicode="&#58926;" d="M512-128C229.236364-128 0 101.236364 0 384S229.236364 896 512 896s512-229.236364 512-512S794.763636-128 512-128zM512 849.454545C254.929455 849.454545 46.545455 641.070545 46.545455 384s208.384-465.454545 465.454545-465.454545 465.454545 208.384 465.454545 465.454545S769.070545 849.454545 512 849.454545zM709.469091 614.376727l32.907636-32.907636L314.530909 153.623273l-32.907636 32.907636L709.469091 614.376727zM314.530909 614.376727l427.869091-427.869091-32.907636-32.907636L281.623273 581.469091 314.530909 614.376727z"  horiz-adv-x="1024" />

    
    <glyph glyph-name="delete1" unicode="&#58899;" d="M515.863273-128c-282.321455 0-512 229.678545-512 512 0 282.298182 229.678545 512 512 512s512-229.701818 512-512C1027.863273 101.678545 798.184727-128 515.863273-128zM515.863273 851.479273C258.094545 851.479273 48.384 641.768727 48.384 384s209.710545-467.502545 467.479273-467.502545S983.342545 126.231273 983.342545 384 773.632 851.479273 515.863273 851.479273zM750.126545 364.450909c-4.026182-4.002909-9.565091-6.516364-15.732364-6.516364L298.449455 357.934545c-12.311273 0-22.272 9.960727-22.272 22.272 0 12.288 9.960727 22.248727 22.248727 22.248727l435.968 0c12.334545 0.023273 22.295273-9.937455 22.272-22.248727C756.689455 374.039273 754.176 368.477091 750.126545 364.450909z"  horiz-adv-x="1028" />

    
    <glyph glyph-name="dianzan" unicode="&#58892;" d="M884.876 472.857h-237.905c92.186 340.464-63.517 357.853-63.517 357.853-65.993 0-52.312-52.182-57.303-60.882 0-166.502-176.85-296.972-176.85-296.972v-472.172c0-46.608 63.517-63.394 88.433-63.394h357.452c33.641 0 61.036 88.224 61.036 88.224 88.434 300.706 88.434 390.177 88.434 390.177 0.001 62.128-59.781 57.164-59.781 57.164v0 0zM251.671 472.7h-142.457c-29.42 0-29.873-28.896-29.873-28.896l29.42-476.203c0-30.309 30.361-30.309 30.361-30.309h123.297c25.686 0 25.459 20.050 25.459 20.050l-0 479.247c0 36.574-36.208 36.111-36.208 36.111v0 0zM251.671 472.7z"  horiz-adv-x="1024" />

    
    <glyph glyph-name="add" unicode="&#58922;" d="M800 416l-256 0L544 672c0 17.664-14.336 32-32 32s-32-14.336-32-32l0-256L224 416c-17.664 0-32-14.336-32-32s14.336-32 32-32l256 0 0-256c0-17.696 14.336-32 32-32s32 14.304 32 32l0 256 256 0c17.696 0 32 14.336 32 32S817.696 416 800 416z"  horiz-adv-x="1024" />

    
    <glyph glyph-name="xiake" unicode="&#59053;" d="M851.84 59.584s9.472-30.912-30.912-30.912H565.248a61.248 61.248 0 0 0 8.576-30.912 61.824 61.824 0 0 0-123.648 0.064c0 11.328 3.264 21.76 8.576 30.912H203.008c-40.384 0-30.912 30.912-30.912 30.912v30.912s-12.992 31.232 63.616 103.04c76.672 71.808 66.56 257.344 66.56 383.04 0 125.696 191.616 128.384 191.616 128.384h36.352s191.552-2.752 191.552-128.448-10.048-311.232 66.56-383.04c76.672-71.808 63.488-102.976 63.488-102.976v-30.976zM511.424 735.616c-26.88 0-48.704 21.568-48.704 48.192S484.48 832 511.424 832c26.88 0 48.704-21.568 48.704-48.192s-21.824-48.192-48.704-48.192z"  horiz-adv-x="1024" />

    
    <glyph glyph-name="delete2" unicode="&#59241;" d="M983.8 583.3C958 644.3 921 699 874 746c-47 47-101.7 84-162.7 109.7C648.2 882.5 581.1 896 512 896S375.8 882.5 312.7 855.7C251.7 830 197 793 150 746c-47-47-84-101.7-109.7-162.7C13.5 520.2 0 453.1 0 384s13.5-136.2 40.3-199.3C66 123.7 103 69 150 22c47-47 101.8-83.9 162.7-109.7 63.1-26.7 130.2-40.3 199.3-40.3s136.2 13.5 199.3 40.3C772.3-62 827-25 874 22c47 47 83.9 101.8 109.7 162.7 26.7 63.1 40.3 130.2 40.3 199.3s-13.5 136.2-40.2 199.3zM692 348H332c-19.9 0-36 16.1-36 36s16.1 36 36 36h360c19.9 0 36-16.1 36-36s-16.1-36-36-36z"  horiz-adv-x="1024" />

    
    <glyph glyph-name="xiake1" unicode="&#58894;" d="M820.736 448.512c0 157.184-84.992 290.816-231.424 324.096v35.84C589.312 852.48 555.52 885.76 512 885.76S434.688 852.48 434.688 808.448v-35.84c-146.432-35.84-231.424-167.424-231.424-324.096v-257.536l-102.912-102.912v-51.712h823.296v51.712l-102.912 102.912V448.512zM512-117.76c7.68 0 12.8 0 20.48 2.56 33.28 7.68 61.952 30.72 74.752 61.952 5.12 12.8 7.68 25.6 7.68 40.96H409.088c0-58.88 46.08-105.472 102.912-105.472zM102.4 464.896c-2.048 0-4.096 0-6.144 0.512-22.528 3.072-37.888 24.064-34.304 46.592 18.432 126.464 79.36 245.248 171.52 334.336 16.384 15.872 41.984 15.36 57.856-1.024 15.872-16.384 15.36-41.984-1.024-57.856-79.36-76.8-131.584-179.2-147.456-287.744-3.072-19.968-20.48-34.816-40.448-34.816zM921.6 464.896c2.048 0 4.096 0 6.144 0.512 22.528 3.072 37.888 24.064 34.304 46.592-18.432 126.464-79.36 245.248-171.52 334.336-16.384 15.872-41.984 15.36-57.856-1.024-15.872-16.384-15.36-41.984 1.024-57.856 79.36-76.8 131.584-179.2 147.456-287.744 3.072-19.968 20.48-34.816 40.448-34.816z"  horiz-adv-x="1024" />

    
    <glyph glyph-name="dianming" unicode="&#58896;" d="M807.936 387.072c-13.824 14.336-33.28 22.016-52.736 22.016-3.584 0-12.8-1.024-23.04-3.584-5.632 37.888-38.4 67.072-77.312 67.072-15.872 0-31.232-5.12-44.544-13.824-11.264 27.648-36.864 45.568-66.56 45.568-17.408 0-34.304-6.144-47.616-16.896l-0.512 7.68c34.816 16.384 65.024 42.496 86.016 74.752 22.528 34.304 34.304 73.728 34.304 114.688C615.936 800.256 521.728 894.976 405.504 894.976 289.792 894.976 195.072 800.768 195.072 684.544c0-89.6 56.832-168.96 141.312-198.144l3.072-148.48c-8.192-4.608-20.992-13.312-36.864-27.648-58.368-53.248-77.824-181.76-11.776-281.088 73.216-110.08 158.72-157.184 286.208-157.184 61.44 0 109.056 13.824 145.92 43.008 32.768 26.112 53.248 60.928 70.144 94.72 33.28 67.072 33.792 320.512 33.792 331.264 1.024 17.408-6.144 33.28-18.944 46.08z m-322.56 287.744c0 45.056-31.744 79.36-74.24 79.36-41.984 0-74.24-34.304-74.24-79.36l1.536-76.8c-26.624 20.48-44.032 52.224-44.032 88.064 0 60.928 49.664 111.104 111.104 111.104 60.928 0 111.104-49.664 111.104-111.104 0-28.672-11.264-54.784-29.184-74.752l-2.048 63.488z m-253.44 10.24c0 96.256 78.336 174.592 174.592 174.592s174.592-78.336 174.592-174.592c0-65.536-36.352-122.88-90.112-152.576l-1.536 36.352c35.84 26.112 59.392 68.096 59.392 115.712 0 78.848-64 142.848-142.848 142.848-78.848 0-142.848-64-142.848-142.848 0-54.784 31.232-101.888 76.288-125.952l0.512-35.328c-62.976 26.624-108.032 89.088-108.032 161.792z"  horiz-adv-x="1024" />

    
    <glyph glyph-name="down_3" unicode="&#58957;" d="M828.78 553.71a32 32 0 0 1-45.25 0L512 282.17 240.47 553.71a32 32 0 0 1-45.25-45.25L489.37 214.3a32 32 0 0 1 45.26 0l294.15 294.16a32 32 0 0 1 0 45.25z"  horiz-adv-x="1024" />

    
    <glyph glyph-name="add1" unicode="&#58905;" d="M512 704c17.673 0 32-14.327 32-32v-256h256c17.673 0 32-14.327 32-32 0-17.673-14.327-32-32-32H544v-256c0-17.673-14.327-32-32-32-17.673 0-32 14.327-32 32V352H224c-17.673 0-32 14.327-32 32 0 17.673 14.327 32 32 32h256V672c0 17.673 14.327 32 32 32z"  horiz-adv-x="1024" />

    
    <glyph glyph-name="bxs-user" unicode="&#59692;" d="M320 618.666667C320 512.810667 406.144 426.666667 512 426.666667s192 86.144 192 192S617.856 810.666667 512 810.666667 320 724.522667 320 618.666667zM853.333333 0h42.666667v42.666667c0 164.650667-134.016 298.666667-298.666667 298.666666h-170.666666c-164.693333 0-298.666667-134.016-298.666667-298.666666v-42.666667h725.333333z"  horiz-adv-x="1024" />

    
    <glyph glyph-name="shuiyin" unicode="&#58978;" d="M90.352941 805.647059v-843.294118h406.588235a45.176471 45.176471 0 0 0 0-90.352941H60.235294a60.235294 60.235294 0 0 0-60.235294 60.235294V835.764706a60.235294 60.235294 0 0 0 60.235294 60.235294h783.058824a60.235294 60.235294 0 0 0 60.235294-60.235294v-135.529412a45.176471 45.176471 0 0 0-90.352941 0V805.647059H90.352941z m798.117647-627.621647V112.941176h117.880471c31.412706 0 57.916235-22.618353 61.831529-52.766117l15.570824-120.470588c4.276706-33.008941-19.968-63.126588-54.091294-67.252706-2.56-0.301176-5.150118-0.451765-7.740236-0.451765H664.696471C630.241882-128 602.352941-101.044706 602.352941-67.764706c0 2.499765 0.150588 4.999529 0.481883 7.469177l15.570823 120.470588c3.915294 30.117647 30.418824 52.766118 61.831529 52.766117H798.117647v65.084236a210.823529 210.823529 0 1 0 90.352941 0zM699.934118-37.647059h286.72l-7.830589 60.235294H707.764706l-7.800471-60.235294zM963.764706 384a120.470588 120.470588 0 1 1-240.941177 0 120.470588 120.470588 0 0 1 240.941177 0zM180.705882 338.823529a15.058824 15.058824 0 0 0 15.058824 15.058824h210.823529a15.058824 15.058824 0 0 0 15.058824-15.058824v-60.235294a15.058824 15.058824 0 0 0-15.058824-15.058823h-210.823529a15.058824 15.058824 0 0 0-15.058824 15.058823v60.235294z m286.117647 195.764706a15.058824 15.058824 0 0 0 15.058824-15.058823v-60.235294a15.058824 15.058824 0 0 0-15.058824-15.058824h-271.058823a15.058824 15.058824 0 0 0-15.058824 15.058824v60.235294a15.058824 15.058824 0 0 0 15.058824 15.058823h271.058823z m180.705883 180.705883a15.058824 15.058824 0 0 0 15.058823-15.058824v-60.235294a15.058824 15.058824 0 0 0-15.058823-15.058824h-451.764706a15.058824 15.058824 0 0 0-15.058824 15.058824v60.235294a15.058824 15.058824 0 0 0 15.058824 15.058824h451.764706z"  horiz-adv-x="1084" />

    
    <glyph glyph-name="down2" unicode="&#58884;" d="M195.2 570.048L512 253.248l316.8 316.8 45.248-45.248L512 162.752 149.952 524.8l45.248 45.248z"  horiz-adv-x="1024" />

    
    <glyph glyph-name="x" unicode="&#59062;" d="M256 85.333333c-12.8 0-21.333333 4.266667-29.866667 12.8-17.066667 17.066667-17.066667 42.666667 0 59.733334l512 512c17.066667 17.066667 42.666667 17.066667 59.733334 0s17.066667-42.666667 0-59.733334l-512-512c-8.533333-8.533333-17.066667-12.8-29.866667-12.8zM768 85.333333c-12.8 0-21.333333 4.266667-29.866667 12.8l-512 512c-17.066667 17.066667-17.066667 42.666667 0 59.733334s42.666667 17.066667 59.733334 0l512-512c17.066667-17.066667 17.066667-42.666667 0-59.733334-8.533333-8.533333-17.066667-12.8-29.866667-12.8z"  horiz-adv-x="1024" />

    
    <glyph glyph-name="image" unicode="&#58921;" d="M778 712.2H247c-50.8 0-92-41.2-92-92v-435c-1.2-4.8-1.2-9.4 0-14v-23.6c0-50.8 41.2-92 92-92h531c50.8 0 92 41.2 92 92V620.2c0 50.8-41.2 92-92 92z m-531-56h531c19.8 0 36-16.2 36-36v-349.4c-20.8 28.2-46 59-72.2 83.4-15.6 14.6-35 20.6-56.2 17.6-33.4-4.8-70-32.6-111.8-84.8-10-12.4-19-24.8-26.4-35.4-36.8 50.8-109.2 144.6-170.6 187.8-18.2 12.8-38.6 15.8-59.4 9-22.6-7.4-44.6-26.6-67-58.6-13-18.4-26.2-41.2-39.6-68V620.2c0.2 20 16.2 36 36.2 36zM632 521.2a63 63 0 1 1 126 0 63 63 0 1 1-126 0z"  horiz-adv-x="1024" />

    
    <glyph glyph-name="up" unicode="&#58902;" d="M511.52384 616.6784c23.48544 0 46.96576-8.9344 64.83456-26.74176l370.432-370.432a40.33536 40.33536 0 0 0 0-57.05216 40.3456 40.3456 0 0 0-57.0624 0l-370.37568 370.3808a11.03872 11.03872 0 0 1-15.75936-0.0512l-370.3296-370.3296a40.33536 40.33536 0 0 0-57.05216 0 40.33536 40.33536 0 0 0 0 57.05216l370.3808 370.3808a91.648 91.648 0 0 0 64.93184 26.79296z"  horiz-adv-x="1024" />

    
    <glyph glyph-name="up1" unicode="&#58908;" d="M871 166.6L519.5 518.1c-1.9 1.9-4.5 3.1-7.5 3.1s-5.6-1.2-7.6-3.2L153 166.6c-13.9-13.9-36.7-13.9-50.6 0-13.9 13.9-13.9 36.7 0 50.6l384.3 384.3c13.9 13.9 36.7 13.9 50.6 0 0.1-0.1 0.1-0.1 0.1-0.2l384.1-384.1c13.9-13.9 13.9-36.7 0-50.6-13.8-13.9-36.6-13.9-50.5 0zM522.2 513.2c0-0.2 0.1-0.3 0.1-0.5 0 0.2 0 0.3-0.1 0.5zM521.6 514.9c0-0.1 0.1-0.1 0.1-0.2 0 0.1 0 0.1-0.1 0.2zM522.6 510.6v0.1-0.1z"  horiz-adv-x="1024" />

    
    <glyph glyph-name="up2" unicode="&#59737;" d="M895.7 236.1c0 9.6-3.2 19.3-9.6 27.4L545.2 687.3c-8.3 10.3-20.8 16.3-34.1 16.3-13.2 0-25.8-6-34-16.3L138 265.3c-15.1-18.8-12.1-46.3 6.7-61.4 18.8-15.1 46.3-12.1 61.4 6.7l305.1 379.6L818 208.7c15.1-18.8 42.6-21.8 61.4-6.7 10.7 8.7 16.3 21.3 16.3 34.1z"  horiz-adv-x="1024" />

    
    <glyph glyph-name="down" unicode="&#59002;" d="M512 273.664l311.168 311.168a42.667 42.667 0 0 0 60.33-60.33L542.166 183.167a42.667 42.667 0 0 0-60.33 0L140.5 524.501a42.667 42.667 0 0 0 60.331 60.331L512 273.664z"  horiz-adv-x="1024" />

    
    <glyph glyph-name="123-01" unicode="&#59629;" d="M885.333333 187.733333c14.933333 17.066667 14.933333 42.666667 0 57.6l-341.333333 337.066667c-8.533333 8.533333-19.2 12.8-32 12.8s-23.466667-4.266667-32-12.8L140.8 245.333333c-17.066667-17.066667-14.933333-42.666667 0-57.6 17.066667-17.066667 42.666667-17.066667 59.733333 0L512 494.933333l311.466667-309.333333c17.066667-14.933333 44.8-14.933333 61.866666 2.133333z"  horiz-adv-x="1024" />

    
    <glyph glyph-name="up3" unicode="&#58898;" d="M541.57312 579.79904a30.95552 30.95552 0 0 0 0-43.58656l-356.38784-358.69696a30.47936 30.47936 0 0 0-43.29984 0l-14.44864 14.5408a30.96576 30.96576 0 0 0 0 43.58656l356.38272 358.69696a30.47936 30.47936 0 0 0 43.30496 0l14.44864-14.5408zM486.656 592.60928a30.48448 30.48448 0 0 0 43.31008 0l356.38272-358.70208a30.96064 30.96064 0 0 0 0-43.58656l-14.44864-14.5408a30.47424 30.47424 0 0 0-43.29984 0L472.21248 534.48192a30.96064 30.96064 0 0 0 0 43.58144l14.44864 14.5408z"  horiz-adv-x="1024" />

    
    <glyph glyph-name="up4" unicode="&#59532;" d="M923.04 206.773333L515.786667 614.026667a5.333333 5.333333 0 0 1-7.573334 0l-407.253333-407.253334a5.333333 5.333333 0 0 1 0-7.573333l45.226667-45.226667a5.333333 5.333333 0 0 1 7.573333 0l354.453333 354.453334a5.333333 5.333333 0 0 0 7.573334 0l354.453333-354.453334a5.333333 5.333333 0 0 1 7.573333 0l45.226667 45.226667a5.333333 5.333333 0 0 1 0 7.573333z"  horiz-adv-x="1024" />

    
    <glyph glyph-name="bofang" unicode="&#58890;" d="M832.0064 384 192 0 192 768 832.0064 384 832.0064 384zM832.0064 384"  horiz-adv-x="1024" />

    
    <glyph glyph-name="jushou" unicode="&#58883;" d="M833.92 350.784c-29.056 28.992-71.872 31.68-100.928 2.688l-83.072-83.136c-21.632-21.504-47.68-21.632-62.848-3.648-10.112 11.904-6.144 48.576-3.264 71.872l41.6 342.4c3.84 30.592-18.048 60.096-48.64 63.872-30.592 3.648-58.432-19.84-62.080-50.432l-46.016-268.928c-2.368-6.72-7.616-7.872-8.192 1.152l-15.552 349.568c0 30.84-25 55.84-55.84 55.84s-55.84-25-55.84-55.84l-1.088-352.192c0.256-4.096-3.264-5.248-3.84-0.576l-49.664 274.88c-5.44 30.336-34.56 52.224-64.896 46.72-30.336-5.44-50.432-36.224-44.992-66.56l44.224-321.664c0-5.76-1.856-9.088-4.608-1.792l-65.92 176.512c-10.304 29.056-42.24 45.952-71.296 35.648-29.056-10.368-44.224-43.968-33.92-73.024l115.648-377.92 1.92-6.144 0.256-0.768 0.064-0.256c33.128-99.424 125.335-169.842 233.99-169.856 75.3 0.6 144.539 26.090 200.010 68.635 57.776 34.533 249.2 240.229 249.2 240.229 28.992 29.248 24.576 73.728-4.416 102.72M833.92 350.784z"  horiz-adv-x="1024" />

    
    <glyph glyph-name="wendang" unicode="&#58990;" d="M889.6 768.512H141.696c-38.656 0-70.08-31.488-70.08-70.144v-467.392c0-38.656 31.488-70.144 70.08-70.144h342.976v-99.456H368.384c-18.688 0-33.792-13.888-33.792-30.976s15.104-30.976 33.792-30.976h294.592c18.688 0 33.792 13.888 33.792 30.976s-15.104 30.976-33.792 30.976H546.688v99.456H889.6c38.656 0 70.144 31.424 70.144 70.144V698.432c0 38.592-31.424 70.08-70.144 70.08z m4.864-526.592a22.272 22.272 0 0 0-22.272-22.336H159.168a22.272 22.272 0 0 0-22.272 22.336V687.488c0 12.352 10.048 22.272 22.272 22.272h713.024c12.288 0 22.272-9.92 22.272-22.272v-445.568zM566.976 582.016c-13.184 10.624-23.936 2.88-23.936-15.872v-49.984h-2.176c-77.056 0-208.128-89.024-209.216-168.192 0-6.336 5.12-8.128 10.048 0 24.896 44.416 129.536 67.456 182.848 67.456h18.496v-52.736c0-15.744 11.648-26.496 24.896-15.872l121.856 97.792c13.184 10.56 13.184 27.904 0 38.528L566.976 582.016z"  horiz-adv-x="1024" />

    
    <glyph glyph-name="pingjia" unicode="&#58910;" d="M685.35 527.88A35.94 35.94 0 0 0 660 589.26L912.42 840.83a35.93 35.93 0 0 0 50.75-50.89L710.73 538.38a35.91 35.91 0 0 0-25.38-10.5zM745.68 312.25H278.49a35.94 35.94 0 1 0 0 71.88h467.19a35.94 35.94 0 1 0 0-71.88zM494.12 527.88H278.49a35.94 35.94 0 1 0 0 71.88h215.63a35.94 35.94 0 1 0 0-71.88zM883.19-119H141c-62.9 0-114.07 52.57-114.07 117.18v771.9C26.93 834.69 78.1 887.26 141 887.26h519.47a35.94 35.94 0 0 0 0-71.88H141c-23.27 0-42.18-20.32-42.18-45.31v-771.89c0-25 18.92-45.31 42.18-45.31h742.2c23.27 0 42.18 20.32 42.18 45.31V539.25a35.94 35.94 0 1 0 71.88 0v-541.07c-0.01-64.61-51.18-117.18-114.07-117.18z"  horiz-adv-x="1024" />

    
    <glyph glyph-name="sharescreen" unicode="&#59534;" d="M772.8 659.2H264c-27.2 0-48-22.4-48-48v-352c0-27.2 22.4-48 48-48h113.6v40h-113.6c-4.8 0-8 3.2-8 8v352c0 4.8 3.2 8 8 8h508.8c4.8 0 8-3.2 8-8v-352c0-4.8-3.2-8-8-8h-123.2v-40h123.2c27.2 0 48 22.4 48 48v352c0 27.2-20.8 48-48 48zM376 136h283.2L518.4 336z"  horiz-adv-x="1024" />

    
    <glyph glyph-name="luzhishipin" unicode="&#59056;" d="M746.656 585.472l110.688 49.184a42.656 42.656 0 0 0 60-38.976v-423.36a42.656 42.656 0 0 0-60-38.976l-110.688 49.184V128a85.344 85.344 0 0 0-85.312-85.344H192A85.344 85.344 0 0 0 106.656 128V640A85.344 85.344 0 0 0 192 725.344h469.344A85.344 85.344 0 0 0 746.656 640v-54.528zM320 514.816v-261.632a21.344 21.344 0 0 1 33.152-17.728l196.224 130.784a21.344 21.344 0 0 1 0 35.52l-196.224 130.784a21.344 21.344 0 0 1-33.152-17.728z"  horiz-adv-x="1024" />

    
    <glyph glyph-name="shezhi-" unicode="&#58893;" d="M915.9 480h-78.7c-7.4 16-17.9 49.3-31.4 73l55.6 54c17.6 17.6 17.6 45.2 0 62.7l-63.5 63.1c-17.5 17.5-45.9 17.3-63.5-0.2l-52.5-55.7c-23.7 13.5-56.9 23.9-72.9 31.3v78.7c0 24.8-26.3 44.9-51.1 44.9h-89.8c-24.8 0-51.1-20.1-51.1-44.9v-78.7c-16-7.4-49.2-17.9-72.9-31.4L290 732.4c-17.6 17.6-45.2 17.6-62.7 0l-63.1-63.5c-17.5-17.5-17.3-45.9 0.2-63.5l55.7-52.5c-13.5-23.7-23.9-57-31.3-72.9h-78.7c-24.8 0-44.9-26.3-44.9-51.1v-89.8c0-24.8 20.1-51.1 44.9-51.1h78.7c7.4-16 18-49.2 31.4-72.9L164.7 161c-17.6-17.6-17.6-45.2 0-62.7l63.5-63.1c17.5-17.5 45.9-17.3 63.5 0.2l52.5 55.7c23.7-13.5 56.9-23.9 72.9-31.3v-78.7c0-24.8 26.3-44.9 51.1-44.9H558c24.8 0 51.1 20.1 51.1 44.9v78.7c16 7.4 49.2 18 73 31.4l54.1-55.6c17.6-17.6 45.2-17.6 62.7 0l63.1 63.5c17.5 17.5 17.3 45.9-0.2 63.5l-55.7 52.5c13.4 23.7 23.9 56.9 31.3 72.9h78.7c24.8 0 44.9 26.3 44.9 51.1v89.8c-0.2 24.8-20.3 51.1-45.1 51.1z m-403-296.9c-98.8 0-178.9 83.1-178.9 185.6s80.1 185.6 178.9 185.6 178.9-83.1 178.9-185.6-80.1-185.6-178.9-185.6z"  horiz-adv-x="1024" />

    
    <glyph glyph-name="jushoujinyong" unicode="&#59195;" d="M788.914901-55.136127l42.78796-40.813131c3.510807-3.364523 7.167898-6.363338 10.971272-9.215868a38.180026 38.180026 0 0 0-35.473779-22.820246H349.259468a37.302324 37.302324 0 0 0-38.180026 36.424623 37.302324 37.302324 0 0 0 38.180026 36.424622h439.655433z m114.320653 199.896573l-66.851617 63.852802V678.110541c0 9.508436-4.242225 12.946101-31.524121 12.946101-21.503693 0-25.599634-4.82736-25.599634-21.942544v-172.76096H702.90013V777.071413c0-1.462836-6.802189 5.485636-17.115184 10.678705-6.436479 3.21824-34.230368 3.21824-40.739989 0-10.459279-5.26621-17.407751-12.434108-17.407752-10.678705v-280.718275H551.277153v313.778374c0 1.828545-17.115184 13.019243-32.548106 13.019243a68.826445 68.826445 0 0 1-35.693205-13.092384v-264.261368l-76.28691 72.849245V727.481265c0 2.559963-15.506064 13.165526-30.28071 13.165526-15.579206 0-33.133241-11.410123-33.133241-13.165526v-48.346738l-72.776103 69.484721c13.165526 38.32631 60.92713 64.803646 105.909344 64.803646 10.166712 0 20.333424-1.389694 30.28071-3.949658C406.67579 859.721661 465.628091 896 518.729047 896c35.620063 0 72.776103-16.676333 93.182669-42.714818 29.256725 13.31181 81.479979 12.946101 109.420151-1.097128 32.840674-16.456908 57.928315-42.349109 57.928315-75.116641v-15.35978c7.899316 1.462836 16.456908 2.194254 25.599634 2.194254 66.9979 0 107.811031-33.279525 107.811032-85.795346v-478.932586c0-18.797446-3.291382-37.082899-9.435294-54.417509zM708.16634 21.955343h-263.310524c-47.761603 0-93.036385 22.088827-133.264382 57.635749l-5.119926 5.558777A36453.87923 36453.87923 0 0 0 198.953044 229.458665l-1.682262 2.194254C140.147026 308.671248 102.990986 359.577949 92.604849 375.522864c-57.562606 88.355309 22.820245 163.837659 107.152754 131.655262L343.334981 370.11037v-8.265025c0-33.060099-42.422251-49.005014-66.047057-24.868216l-15.871773 16.237482-35.181211 35.620063c-22.088827 22.235111-47.395894 47.176469-45.933059 46.298767-26.331052 16.091199-39.935429 4.973643-22.893387-21.211126 9.142727-14.043228 46.591334-65.38878 102.10597-140.139712l1.682262-2.267396a38214.695219 38214.695219 0 0 1 105.031642-140.87113c26.62362-22.820245 54.124941-35.839488 78.627448-35.839488h186.950472l76.360052-72.849246zM122.51985 683.888744l763.161669-728.346166a39.496579 39.496579 0 0 1 53.978657 0 35.254354 35.254354 0 0 1 0 51.491836L176.425365 735.38058a39.496579 39.496579 0 0 1-53.905515 0 35.254354 35.254354 0 0 1 0-51.491836z"  horiz-adv-x="1024" />

    
    <glyph glyph-name="gengduo" unicode="&#58889;" d="M928 341.248V-32H554.752V341.248H928z m-458.752 0V-32H96V341.248h373.248z m373.248-85.568h-202.24v-202.176h202.24v202.24z m-458.816 0H181.504v-202.176h202.24v202.24zM928 800v-373.248H554.752V800H928z m-458.752 0v-373.248H96V800h373.248z m373.248-85.504h-202.24v-202.24h202.24v202.24z m-458.816 0H181.504v-202.24h202.24v202.24z"  horiz-adv-x="1024" />

    
    <glyph glyph-name="gengduobeifen" unicode="&#58919;" d="M95 801m77 0l232 0q77 0 77-77l0-232q0-77-77-77l-232 0q-77 0-77 77l0 232q0 77 77 77ZM95 352m77 0l232 0q77 0 77-77l0-232q0-77-77-77l-232 0q-77 0-77 77l0 232q0 77 77 77ZM544 352m77 0l232 0q77 0 77-77l0-232q0-77-77-77l-232 0q-77 0-77 77l0 232q0 77 77 77ZM544 801m193 0l0 0q193 0 193-193l0 0q0-193-193-193l0 0q-193 0-193 193l0 0q0 193 193 193Z"  horiz-adv-x="1024" />

    
    <glyph glyph-name="pingmugongxiang" unicode="&#58997;" d="M603.136 182.6304c2.4576-2.048 4.6592-4.2496 6.7072-6.656l188.1088-219.4432a51.2 51.2 0 0 0-38.912-84.5312h-391.68a51.2 51.2 0 0 0-38.912 84.48l188.1088 219.4944a61.44 61.44 0 0 0 86.6304 6.656zM885.1456 896c65.6896-0.4608 99.9936-7.4752 135.68-26.5728 33.9456-18.176 60.928-45.1072 79.0528-79.0528 18.7392-35.072 25.856-68.8128 26.5216-132.4032l0.0512-10.0864v-446.6176c0-49.2032-8.2944-87.04-26.5728-121.2416a190.7712 190.7712 0 0 0-79.0528-79.0528c-33.28-17.8176-70.144-26.112-117.5552-26.5728H888.832a51.2 51.2 0 0 0-1.4336 102.4h12.0832c33.28 0 54.6304 4.6592 72.96 14.4896 16.0768 8.6016 28.416 20.9408 37.0176 37.0176 9.5232 17.7664 14.1824 38.4 14.4896 69.9392V647.8848c0 54.6816-3.7376 74.1888-14.4896 94.208a88.3712 88.3712 0 0 1-37.0176 37.0176c-19.712 10.5472-38.8608 14.336-91.4432 14.4896H240.0256c-48.64-0.4096-67.072-4.3008-86.1184-14.4896-16.0768-8.6016-28.416-20.9408-37.0176-37.0176-10.5472-19.712-14.336-38.8608-14.4896-91.4432v-449.3824c0-33.28 4.6592-54.6304 14.4896-72.96 8.6016-16.0768 20.9408-28.416 37.0176-37.0176 17.7664-9.5232 38.4-14.1824 69.9392-14.4896h13.6192a51.2 51.2 0 0 0 1.4336-102.4h-12.032c-49.2032 0-87.04 8.2944-121.2416 26.5728A190.7712 190.7712 0 0 0 26.624 80.0256c-17.8176 33.28-26.112 70.144-26.5728 117.5552V647.8848c0 70.144 6.8608 105.6256 26.5728 142.4896A190.7712 190.7712 0 0 0 105.6256 869.376C141.9264 888.832 176.7936 895.7952 244.736 896h640.4096z"  horiz-adv-x="1126" />

    
    <glyph glyph-name="off" unicode="&#59060;" d="M767.872 498.176L768 612.608c-0.213333-111.530667-0.170667-223.104-0.213333-334.677333 0-29.44-3.626667-58.24-16-85.888-21.376-47.616-58.88-79.658667-111.872-95.488h63.445333c8.96 0 16.256-7.210667 16.256-16.085334V0H362.24v80.469333a16.213333 16.213333 0 0 0 16.213333 16.085334h64.426667l-2.133333 0.554666a232.832 232.832 0 0 0-52.608 21.290667l379.733333 379.776z m-235.093333 237.44c0.938667-5.290667 0.810667-10.794667 0.853333-16.170667V485.973333c0.256-9.898667 1.109333-20.48 15.573333-20.266666 13.056 0.170667 14.592 8.789333 14.762667 17.706666V486.4c0 69.248-0.170667 138.581333 0.213333 207.786667 0.042667 8.789333 1.578667 18.218667 5.376 26.154666 7.082667 14.848 25.6 22.997333 43.093334 21.162667 17.92-1.92 33.194667-14.506667 36.778666-30.976 1.152-5.248 1.194667-10.752 1.194667-16.128 0.085333-58.026667 0-116.053333 0.042667-174.08l30.122666 30.122667V612.565333c0 31.573333 17.066667 50.858667 44.373334 50.261334 20.138667-0.426667 33.877333-10.666667 39.68-28.416l44.672 44.714666c13.738667 13.738667 34.986667 14.762667 47.530666 2.261334 12.501333-12.501333 11.477333-33.792-2.261333-47.530667l-613.973333-613.973333c-13.738667-13.738667-34.986667-14.762667-47.530667-2.261334-12.501333 12.501333-11.477333 33.792 2.261333 47.530667l119.509334 119.552-64.64 88.192a22153.130667 22153.130667 0 0 0-66.56 91.221333 70.4 70.4 0 0 0-11.946667 24.405334c-5.205333 22.314667 6.528 43.136 27.392 51.84 21.76 9.130667 50.090667 3.072 65.792-15.445334 20.906667-24.533333 40.874667-49.749333 61.269333-74.666666l3.584 0.597333v14.293333 305.024c0 21.76 9.685333 36.266667 27.605334 42.24 30.208 9.984 58.624-8.064 59.050666-38.442666 0.554667-41.344 0.170667-82.773333 0.170667-124.16V485.12c0-9.642667 1.536-19.2 15.018667-19.328 13.44-0.128 15.146667 9.045333 15.146666 18.944-0.085333 79.146667-0.085333 158.336-0.042666 237.525333 0 22.912 11.093333 38.570667 31.146666 44.074667 24.832 6.826667 50.688-7.552 54.741334-30.72z"  horiz-adv-x="1024" />

    
    <glyph glyph-name="fabu" unicode="&#58925;" d="M946.176 774.176c2.848-7.68 2.848-16.128 0-23.776l-287.776-774.784a34.144 34.144 0 0 0-56.128-12.256l-176.32 176.32-121.856-113.92c-23.296-21.76-60.224-2.56-57.344 27.84l0.544 3.712 38.336 194.432c1.152 5.92 3.872 11.424 7.84 15.936l2.24 2.24-180.48 180.48a34.144 34.144 0 0 0 12.288 56.096l774.752 287.776a34.144 34.144 0 0 0 43.904-20.096z m-190.144-159.232l-418.176-314.656 45.664-49.6L756.032 614.912z"  horiz-adv-x="1024" />

    
    <glyph glyph-name="jushoujinyong1" unicode="&#59016;" d="M785.7664 639.232c-14.8992 0-24.8832-4.864-34.816-4.864v38.6048c0 43.4176-39.8336 82.0224-84.6336 82.0224-14.9504 0-29.8496-4.8128-39.8336-9.6256-9.9328 28.928-39.8336 48.2304-74.6496 48.2304-34.816 0-64.7168-19.3024-74.7008-48.2304-14.8992 4.8128-29.8496 9.6256-44.8 9.6256-44.8 0-84.5824-38.6048-84.5824-82.0224v-265.3184l-39.8336 77.1584a78.6944 78.6944 0 0 1-49.7664 38.6048c-24.8832 4.8128-44.8 4.8128-64.7168-9.6256-39.8336-24.1664-49.7664-72.3968-29.9008-111.0016 5.0176-9.6256 29.9008-62.72 104.5504-202.5984 34.816-72.3968 79.6672-125.44 119.4496-154.4192 34.8672-24.064 59.7504-24.064 64.7168-24.064h199.168c34.816 0 64.6656 9.6256 94.5152 33.7408 24.9344 19.3024 49.8176 48.2304 69.7344 86.8352C850.432 214.6304 870.4 311.1424 870.4 431.7696V562.0224c0 43.4176-34.816 77.2096-84.6336 77.2096zM492.0832 402.7904c14.9504 0 24.8832 9.6768 24.8832 24.1152v284.672c0 19.3024 14.9504 33.792 34.816 33.792 19.968 0 34.8672-14.4896 34.8672-33.792v-284.672c0-14.4384 9.984-24.064 24.8832-24.064 14.9504 0 24.9344 9.6256 24.9344 24.064V672.9728c0 19.3024 14.8992 33.792 34.816 33.792 19.9168 0 34.816-14.4896 34.816-33.792v-284.672c0-14.4384 9.984-24.064 24.9344-24.064 14.8992 0 24.8832 9.6256 24.8832 24.064V562.0736c0 19.3024 14.9504 33.792 34.816 33.792 19.968 0 34.8672-14.4896 34.8672-33.792v-135.1168c0-106.1376-19.9168-202.5984-49.7664-265.3184-24.8832-43.4176-64.7168-91.648-124.416-91.648H457.216s-14.9504 0-39.8336 19.2512c-24.8832 19.3024-59.7504 53.0944-104.5504 135.1168C243.2 364.1856 213.3504 417.28 208.384 426.9056c-9.9328 19.3024-4.9664 38.6048 14.9504 48.2816 0 0 4.9664 4.8128 9.984 4.8128h9.9328c9.9328 0 14.9504-9.6256 19.9168-14.4896l59.7504-106.1376c14.8992-24.064 29.8496-33.792 49.7664-28.928 19.9168 4.8128 24.8832 19.3024 24.8832 48.2304V672.9728c0 19.3024 14.9504 33.792 34.816 33.792 19.968 0 34.8672-14.4896 34.8672-33.792v-246.0672c0-14.4384 9.9328-24.064 24.8832-24.064zM890.368-76.8a27.648 27.648 0 0 0-20.1728 10.5472l-0.1536 0.2048L212.224 740.352a33.5872 33.5872 0 0 0-7.3728 23.1424 33.28 33.28 0 0 0 9.7792 22.1184 28.16 28.16 0 0 0 41.728-2.7136l657.8176-806.3488a33.5872 33.5872 0 0 0 7.3728-23.1424 32.3584 32.3584 0 0 0-9.728-22.016 29.3888 29.3888 0 0 0-21.4528-8.192z"  horiz-adv-x="1024" />

    
    <glyph glyph-name="jushoujinyong2" unicode="&#59019;" d="M528.511669 896c40.939723 0 76.09972-22.697464 87.779582-56.713557 11.740068 5.659315 29.259861 11.318629 46.83986 11.318629 52.67979 0 99.51965-45.394928 99.519649-96.44917v-45.394928c11.679862 0 23.41993 5.71952 40.939723 5.71952 58.519721 0 99.51965-39.735613 99.51965-90.789856v-153.162728c0-141.844098-23.41993-255.271213-64.419858-340.401754a359.426684 359.426684 0 0 0-17.881026-30.945614l133.776565-163.939507a39.494791 39.494791 0 0 0 8.669588-27.212875 38.04986 38.04986 0 0 0-11.43904-25.888354 34.557942 34.557942 0 0 0-25.226094-9.632876 32.510956 32.510956 0 0 0-23.720957 12.402328l-0.180616 0.240822-128.598894 157.617933a245.638337 245.638337 0 0 0-17.339177-14.750342c-35.099792-28.356779-70.199584-39.735613-111.199512-39.735613H409.846679c-8.488972 0.120411-36.484518 2.046986-74.534378 28.356779-46.779654 34.076299-99.459444 96.44917-140.459373 181.579711C107.073346 362.699905 77.813486 425.132982 71.913349 436.451612 48.553625 481.84654 60.233487 538.560097 107.073346 566.977081c23.41993 16.977944 46.839859 16.977944 76.09972 11.318629 23.41993-5.659315 46.779654-22.697464 58.519722-45.394928l46.839859-90.72965-0.060205 195.908614-159.303686 195.246355a39.494791 39.494791 0 0 0-8.669589 27.27308 39.133559 39.133559 0 0 0 11.499246 26.008765 33.113011 33.113011 0 0 0 49.067462-3.19089l107.406567-131.609168v2.408219c0 48.344996 42.083627 91.632732 91.271499 96.027732l8.24815 0.361233c17.579999 0 35.159997-5.659315 52.679791-11.318629C452.411949 873.302536 487.511741 896 528.511669 896zM346.992163 566.314821v-158.219988c0-34.016093-5.779726-51.054243-29.199655-56.713557-23.480135-5.659315-40.939723 5.659315-58.519722 34.016093L189.012997 510.203318c-5.839931 5.71952-11.740068 17.038149-23.419929 17.038149h-11.679862c-5.900137 0-11.740068-5.659315-11.740068-5.659314-23.41993-11.378835-29.259861-34.076299-17.579998-56.773763 5.478698-10.535958 36.424312-65.623967 107.165744-206.685394l15.773835-31.547669c52.67979-96.44917 93.679719-136.184784 122.939579-158.882248 29.259861-22.697464 46.839859-22.697464 46.83986-22.697464h228.238954c37.929449 0 69.055679 16.556506 94.221568 39.795819l-287.180114 352.081616a26.731231 26.731231 0 0 0-23.600546 27.93534v1.023493L346.992163 566.314821zM528.511669 839.286443c-23.480135 0-40.939723-17.038149-40.939723-39.735613l-0.060205-291.755731 298.197716-365.447231 0.842877 1.384726 5.358287 9.030821c35.099792 73.811912 58.519721 187.239026 58.519721 312.044975V623.690638c0 22.697464-17.579999 39.735613-40.939722 39.735613-23.480135 0-40.999928-17.038149-40.999929-39.735613v-204.21697c0-17.038149-11.740068-28.416984-29.25986-28.416984-17.579999 0-29.259861 11.378835-29.259861 28.416984v334.742439c0 22.637258-17.579999 39.675408-40.939723 39.675408-23.480135 0-40.999928-17.038149-40.999928-39.735613v-289.347512c0-16.977944-11.740068-28.296573-29.320066-28.296573-17.519793 0-29.259861 11.318629-29.259861 28.296573v334.74244c0 22.697464-17.519793 39.735613-40.939723 39.735613z m-140.519578-45.394928c-23.359724 0-40.939723-17.038149-40.939722-39.735613l-0.060206-74.11294 81.999857-100.482937v174.595877a39.013148 39.013148 0 0 1-34.738559 39.314175z"  horiz-adv-x="1024" />

    
    <glyph glyph-name="calendar-arrow-right" unicode="&#60581;" d="M260.736 837.952l0.608-94.816c0.128-16.8 7.008-32 18.016-43.008l292.864-292.864a30.72 30.72 0 0 0 0-43.328L276.8 68.512a61.28 61.28 0 0 1-18.016-43.488v-1.12 0.064l1.632-91.84a30.72 30.72 0 0 1 52.448-21.184l445.632 445.632c7.424 7.424 12 17.664 12 28.992s-4.576 21.568-12 28.992L313.152 860a30.72 30.72 0 0 1-52.416-21.728v-0.288z"  horiz-adv-x="1024" />

    
    <glyph glyph-name="calendar-arrow-left" unicode="&#60582;" d="M763.264 837.952l-0.608-94.816c-0.128-16.8-7.008-32-18.016-43.008l-292.864-292.864a30.72 30.72 0 0 1 0-43.328l295.424-295.424c11.136-11.136 18.048-26.496 18.048-43.488v-1.12 0.064l-1.632-91.84a30.72 30.72 0 0 0-52.448-21.184L265.536 356.576c-7.424 7.424-12 17.664-12 28.992s4.576 21.568 12 28.992l445.344 445.44a30.72 30.72 0 0 0 52.416-21.728v-0.288z"  horiz-adv-x="1024" />

    


  </font>
</defs>
</svg>
